<svg width="700" height="700" viewBox="0 0 700 700" fill="none" xmlns="http://www.w3.org/2000/svg">
<path opacity="0.5" d="M350 50C389.031 50 427.219 55.5937 463.672 67.5781L498.047 31.8281C515.422 10.3437 549.594 0 575 0C637.953 0 658.5 8.5625 700 50L646.094 215.234C665.844 252.047 679.297 290.656 679.297 342.969C679.297 373.172 670.766 408.328 653.719 448.438C636.656 488.547 614.719 521.094 587.891 546.094L495.703 678.516C484.969 693.641 476.391 700 457.422 700H420.703C405.953 700 400 688.813 400 675V600C383.703 602.75 366.563 603.656 350 603.656C333.437 603.656 316.297 602.75 300 600V675C300 688.813 294.047 700 279.297 700H242.578C223.609 700 215.031 693.641 204.297 678.516L112.109 546.094C85.2812 521.094 63.3438 488.547 46.2813 448.438C29.2344 408.328 20.7031 373.172 20.7031 342.969C20.7031 290.656 34.1562 252.047 53.9062 215.234L0 50C41.5 8.5625 62.0469 0 125 0C150.406 0 184.578 10.3437 201.953 31.8281L236.328 67.5781C272.781 55.5937 310.969 50 350 50ZM350 517.578C410.281 517.578 479.297 486.813 479.297 417.578C479.297 348.281 410.172 317.578 350 317.578C289.828 317.578 220.703 348.281 220.703 417.578C220.703 486.875 289.828 517.578 350 517.578ZM237.5 200C216.781 200 200 216.781 200 237.5V262.5C200 283.203 216.781 300 237.5 300C258.203 300 275 283.203 275 262.5V237.5C275 216.781 258.203 200 237.5 200ZM462.5 200C441.797 200 425 216.781 425 237.5V262.5C425 283.203 441.797 300 462.5 300C483.219 300 500 283.203 500 262.5V237.5C500 216.781 483.219 200 462.5 200ZM300 450C286.187 450 275 433.203 275 412.5C275 391.781 286.187 375 300 375C313.797 375 325 391.781 325 412.5C325 433.203 313.797 450 300 450ZM400 450C386.203 450 375 433.203 375 412.5C375 391.781 386.203 375 400 375C413.813 375 425 391.781 425 412.5C425 433.203 413.813 450 400 450Z" fill="#FABFB7"/>
</svg>
